<svg width="21" height="21" viewBox="0 0 21 21" fill="none" xmlns="http://www.w3.org/2000/svg">
    <rect x="17.6" y="2.8999" width="2.7" height="11.2" fill="#AD20EF"/>
    <rect x="15.8" y="14.1001" width="1.8" height="2.4" fill="#AD20EF"/>
    <rect x="3.19995" y="4.5" width="2.7" height="2.4" fill="#AD20EF"/>
    <rect x="5" y="0.5" width="12.6" height="2.4" fill="#AD20EF"/>
    <rect x="5" y="2.8999" width="2.5" height="2.22222" fill="#AD20EF"/>
    <rect x="3.19995" y="18.1001" width="2.7" height="2.4" fill="#AD20EF"/>
    <rect x="5.90002" y="4.5" width="2.7" height="2.4" fill="#AD20EF"/>
    <rect x="5.90002" y="18.1001" width="2.7" height="2.4" fill="#AD20EF"/>
    <rect x="8.59998" y="4.5" width="1.8" height="2.4" fill="#AD20EF"/>
    <rect x="7.69995" y="18.1001" width="2.7" height="2.4" fill="#AD20EF"/>
    <rect x="10.4" y="4.5" width="2.7" height="2.4" fill="#AD20EF"/>
    <rect x="10.4" y="18.1001" width="2.7" height="2.4" fill="#AD20EF"/>
    <rect x="0.5" y="6.8999" width="2.7" height="2.4" fill="#AD20EF"/>
    <rect x="13.1" y="6.8999" width="2.7" height="2.4" fill="#AD20EF"/>
    <rect x="0.5" y="9.2998" width="2.7" height="2.4" fill="#AD20EF"/>
    <rect x="13.1" y="9.2998" width="2.7" height="2.4" fill="#AD20EF"/>
    <rect x="0.5" y="11.7002" width="2.7" height="2.4" fill="#AD20EF"/>
    <rect x="13.1" y="11.7002" width="2.7" height="2.4" fill="#AD20EF"/>
    <rect x="0.5" y="14.1001" width="2.7" height="1.6" fill="#AD20EF"/>
    <rect x="13.1" y="14.1001" width="2.7" height="1.6" fill="#AD20EF"/>
    <rect x="0.5" y="15.7002" width="2.7" height="2.4" fill="#AD20EF"/>
    <rect x="13.1" y="15.7002" width="2.7" height="2.4" fill="#AD20EF"/>
</svg>