<svg width="21" height="20" viewBox="0 0 21 20" fill="none" xmlns="http://www.w3.org/2000/svg">
<path d="M2.21484 4.47656H3.31953V5.58125H2.21484V4.47656Z" fill="#404040"/>
<path d="M17.6804 4.47656H18.7851V5.58125H17.6804V4.47656Z" fill="#404040"/>
<path d="M2.21484 5.58105H3.31953V6.68574H2.21484V5.58105Z" fill="#404040"/>
<path d="M17.6804 5.58105H18.7851V6.68574H17.6804V5.58105Z" fill="#404040"/>
<path d="M2.21484 6.68604H3.31953V7.79072H2.21484V6.68604Z" fill="#404040"/>
<path d="M17.6804 6.68604H18.7851V7.79072H17.6804V6.68604Z" fill="#404040"/>
<path d="M3.31958 8.89551H4.42427V10.0002H3.31958V8.89551Z" fill="#404040"/>
<path d="M16.5757 8.89551H17.6804V10.0002H16.5757V8.89551Z" fill="#404040"/>
<path d="M2.21484 7.79053H3.31953V8.89521H2.21484V7.79053Z" fill="#404040"/>
<path d="M17.6804 7.79053H18.7851V8.89521H17.6804V7.79053Z" fill="#404040"/>
<path d="M3.31958 10H4.42427V11.1047H3.31958V10Z" fill="#404040"/>
<path d="M16.5757 10H17.6804V11.1047H16.5757V10Z" fill="#404040"/>
<path d="M4.42432 11.1045H5.529V12.2092H4.42432V11.1045Z" fill="#404040"/>
<path d="M15.4712 11.1045H16.5759V12.2092H15.4712V11.1045Z" fill="#404040"/>
<path d="M5.52881 12.2095H6.6335V13.3142H5.52881V12.2095Z" fill="#404040"/>
<path d="M14.3665 12.2095H15.4711V13.3142H14.3665V12.2095Z" fill="#404040"/>
<path d="M6.63354 13.314H7.73823V14.4187H6.63354V13.314Z" fill="#404040"/>
<path d="M13.2617 13.314H14.3664V14.4187H13.2617V13.314Z" fill="#404040"/>
<path d="M7.73828 14.4189H8.84297V15.5236H7.73828V14.4189Z" fill="#404040"/>
<path d="M12.157 14.4189H13.2617V15.5236H12.157V14.4189Z" fill="#404040"/>
<path d="M3.31958 3.37207H4.42427V4.47676H3.31958V3.37207Z" fill="#404040"/>
<path d="M16.5757 3.37207H17.6804V4.47676H16.5757V3.37207Z" fill="#404040"/>
<path d="M5.52881 2.26709H6.6335V3.37178H5.52881V2.26709Z" fill="#404040"/>
<path d="M4.42432 2.26709H5.529V3.37178H4.42432V2.26709Z" fill="#404040"/>
<path d="M6.63354 2.26709H7.73823V3.37178H6.63354V2.26709Z" fill="#404040"/>
<path d="M5.52881 3.37207H6.6335V4.47676H5.52881V3.37207Z" fill="#FF3646"/>
<path d="M4.42432 3.37207H5.529V4.47676H4.42432V3.37207Z" fill="#FF3646"/>
<path d="M6.63354 3.37207H7.73823V4.47676H6.63354V3.37207Z" fill="#FF3646"/>
<path d="M14.3665 3.37207H15.4711V4.47676H14.3665V3.37207Z" fill="#FF3646"/>
<path d="M13.2617 3.37207H14.3664V4.47676H13.2617V3.37207Z" fill="#FF3646"/>
<path d="M15.4712 3.37207H16.5759V4.47676H15.4712V3.37207Z" fill="#FF3646"/>
<path d="M7.73828 3.37207H8.84297V4.47676H7.73828V3.37207Z" fill="#404040"/>
<path d="M3.31958 4.47656H4.42427V5.58125H3.31958V4.47656Z" fill="#FF3646"/>
<path d="M5.52881 4.47656H6.6335V5.58125H5.52881V4.47656Z" fill="white"/>
<path d="M4.42432 4.47656H5.529V5.58125H4.42432V4.47656Z" fill="white"/>
<path d="M6.63354 4.47656H7.73823V5.58125H6.63354V4.47656Z" fill="#FF3646"/>
<path d="M7.73828 4.47656H8.84297V5.58125H7.73828V4.47656Z" fill="#FF3646"/>
<path d="M3.31958 5.58105H4.42427V6.68574H3.31958V5.58105Z" fill="#FF3646"/>
<path d="M5.52881 5.58105H6.6335V6.68574H5.52881V5.58105Z" fill="#FF3646"/>
<path d="M4.42432 5.58105H5.529V6.68574H4.42432V5.58105Z" fill="white"/>
<path d="M6.63354 5.58105H7.73823V6.68574H6.63354V5.58105Z" fill="#FF3646"/>
<path d="M7.73828 5.58105H8.84297V6.68574H7.73828V5.58105Z" fill="#FF3646"/>
<path d="M3.31958 6.68604H4.42427V7.79072H3.31958V6.68604Z" fill="#FF3646"/>
<path d="M5.52905 6.68604H6.63374V7.79072H5.52905V6.68604Z" fill="#FF3646"/>
<path d="M4.42432 6.68604H5.529V7.79072H4.42432V6.68604Z" fill="#FF3646"/>
<path d="M6.63354 6.68604H7.73823V7.79072H6.63354V6.68604Z" fill="#FF3646"/>
<path d="M7.73828 6.68604H8.84297V7.79072H7.73828V6.68604Z" fill="#FF3646"/>
<path d="M3.31958 7.79053H4.42427V8.89521H3.31958V7.79053Z" fill="#FF3646"/>
<path d="M5.52905 7.79053H6.63374V8.89521H5.52905V7.79053Z" fill="#FF3646"/>
<path d="M4.42432 7.79053H5.529V8.89521H4.42432V7.79053Z" fill="#FF3646"/>
<path d="M6.63354 7.79053H7.73823V8.89521H6.63354V7.79053Z" fill="#FF3646"/>
<path d="M7.73828 7.79053H8.84297V8.89521H7.73828V7.79053Z" fill="#FF3646"/>
<path d="M5.52905 8.89551H6.63374V10.0002H5.52905V8.89551Z" fill="#FF3646"/>
<path d="M4.42432 8.89551H5.529V10.0002H4.42432V8.89551Z" fill="#FF3646"/>
<path d="M6.63354 8.89551H7.73823V10.0002H6.63354V8.89551Z" fill="#FF3646"/>
<path d="M7.73828 8.89551H8.84297V10.0002H7.73828V8.89551Z" fill="#FF3646"/>
<path d="M5.52905 10H6.63374V11.1047H5.52905V10Z" fill="#FF3646"/>
<path d="M4.42432 10H5.529V11.1047H4.42432V10Z" fill="#FF3646"/>
<path d="M6.63354 10H7.73823V11.1047H6.63354V10Z" fill="#FF3646"/>
<path d="M7.73828 10H8.84297V11.1047H7.73828V10Z" fill="#FF3646"/>
<path d="M5.52905 11.1045H6.63374V12.2092H5.52905V11.1045Z" fill="#FF3646"/>
<path d="M6.63354 11.1045H7.73823V12.2092H6.63354V11.1045Z" fill="#FF3646"/>
<path d="M7.73828 11.1045H8.84297V12.2092H7.73828V11.1045Z" fill="#FF3646"/>
<path d="M6.63354 12.2095H7.73823V13.3142H6.63354V12.2095Z" fill="#FF3646"/>
<path d="M7.73828 12.2095H8.84297V13.3142H7.73828V12.2095Z" fill="#FF3646"/>
<path d="M7.73828 13.314H8.84297V14.4187H7.73828V13.314Z" fill="#FF3646"/>
<path d="M12.157 4.47656H13.2617V5.58125H12.157V4.47656Z" fill="#FF3646"/>
<path d="M14.3665 4.47656H15.4711V5.58125H14.3665V4.47656Z" fill="#FF3646"/>
<path d="M13.2617 4.47656H14.3664V5.58125H13.2617V4.47656Z" fill="#FF3646"/>
<path d="M15.4712 4.47656H16.5759V5.58125H15.4712V4.47656Z" fill="#FF3646"/>
<path d="M16.5759 4.47656H17.6806V5.58125H16.5759V4.47656Z" fill="#FF3646"/>
<path d="M12.157 5.58105H13.2617V6.68574H12.157V5.58105Z" fill="#FF3646"/>
<path d="M14.3665 5.58105H15.4711V6.68574H14.3665V5.58105Z" fill="#FF3646"/>
<path d="M13.2617 5.58105H14.3664V6.68574H13.2617V5.58105Z" fill="#FF3646"/>
<path d="M15.4712 5.58105H16.5759V6.68574H15.4712V5.58105Z" fill="#FF3646"/>
<path d="M16.5759 5.58105H17.6806V6.68574H16.5759V5.58105Z" fill="#FF3646"/>
<path d="M12.157 6.68604H13.2617V7.79072H12.157V6.68604Z" fill="#FF3646"/>
<path d="M14.3665 6.68604H15.4711V7.79072H14.3665V6.68604Z" fill="#FF3646"/>
<path d="M13.2617 6.68604H14.3664V7.79072H13.2617V6.68604Z" fill="#FF3646"/>
<path d="M15.4712 6.68604H16.5759V7.79072H15.4712V6.68604Z" fill="#FF3646"/>
<path d="M16.5759 6.68604H17.6806V7.79072H16.5759V6.68604Z" fill="#FF3646"/>
<path d="M12.157 7.79053H13.2617V8.89521H12.157V7.79053Z" fill="#FF3646"/>
<path d="M14.3665 7.79053H15.4711V8.89521H14.3665V7.79053Z" fill="#FF3646"/>
<path d="M13.2617 7.79053H14.3664V8.89521H13.2617V7.79053Z" fill="#FF3646"/>
<path d="M15.4712 7.79053H16.5759V8.89521H15.4712V7.79053Z" fill="#FF3646"/>
<path d="M12.157 8.89551H13.2617V10.0002H12.157V8.89551Z" fill="#FF3646"/>
<path d="M14.3665 8.89551H15.4711V10.0002H14.3665V8.89551Z" fill="#FF3646"/>
<path d="M13.2617 8.89551H14.3664V10.0002H13.2617V8.89551Z" fill="#FF3646"/>
<path d="M15.4712 8.89551H16.5759V10.0002H15.4712V8.89551Z" fill="#FF3646"/>
<path d="M12.157 10H13.2617V11.1047H12.157V10Z" fill="#FF3646"/>
<path d="M14.3665 10H15.4711V11.1047H14.3665V10Z" fill="#FF3646"/>
<path d="M13.2617 10H14.3664V11.1047H13.2617V10Z" fill="#FF3646"/>
<path d="M12.157 11.1045H13.2617V12.2092H12.157V11.1045Z" fill="#FF3646"/>
<path d="M14.3665 11.1045H15.4711V12.2092H14.3665V11.1045Z" fill="#FF3646"/>
<path d="M13.2617 11.1045H14.3664V12.2092H13.2617V11.1045Z" fill="#FF3646"/>
<path d="M12.157 12.2095H13.2617V13.3142H12.157V12.2095Z" fill="#FF3646"/>
<path d="M12.157 13.314H13.2617V14.4187H12.157V13.314Z" fill="#FF3646"/>
<path d="M13.2617 12.2095H14.3664V13.3142H13.2617V12.2095Z" fill="#FF3646"/>
<path d="M15.4712 10H16.5759V11.1047H15.4712V10Z" fill="#FF3646"/>
<path d="M16.5759 7.79053H17.6806V8.89521H16.5759V7.79053Z" fill="#FF3646"/>
<path d="M8.84302 4.47656H9.94771V5.58125H8.84302V4.47656Z" fill="#404040"/>
<path d="M9.94775 5.58105H11.0524V6.68574H9.94775V5.58105Z" fill="#404040"/>
<path d="M12.157 3.37207H13.2617V4.47676H12.157V3.37207Z" fill="#404040"/>
<path d="M11.0522 4.47656H12.1569V5.58125H11.0522V4.47656Z" fill="#404040"/>
<path d="M8.84302 5.58105H9.94771V6.68574H8.84302V5.58105Z" fill="#FF3646"/>
<path d="M9.94775 6.68604H11.0524V7.79072H9.94775V6.68604Z" fill="#FF3646"/>
<path d="M11.0522 5.58105H12.1569V6.68574H11.0522V5.58105Z" fill="#FF3646"/>
<path d="M8.84302 6.68604H9.94771V7.79072H8.84302V6.68604Z" fill="#FF3646"/>
<path d="M9.94775 7.79053H11.0524V8.89521H9.94775V7.79053Z" fill="#FF3646"/>
<path d="M11.0522 6.68604H12.1569V7.79072H11.0522V6.68604Z" fill="#FF3646"/>
<path d="M8.84302 7.79053H9.94771V8.89521H8.84302V7.79053Z" fill="#FF3646"/>
<path d="M9.94775 8.89551H11.0524V10.0002H9.94775V8.89551Z" fill="#FF3646"/>
<path d="M11.0522 7.79053H12.1569V8.89521H11.0522V7.79053Z" fill="#FF3646"/>
<path d="M8.84302 8.89551H9.94771V10.0002H8.84302V8.89551Z" fill="#FF3646"/>
<path d="M9.94775 10H11.0524V11.1047H9.94775V10Z" fill="#FF3646"/>
<path d="M11.0522 8.89551H12.1569V10.0002H11.0522V8.89551Z" fill="#FF3646"/>
<path d="M8.84302 10H9.94771V11.1047H8.84302V10Z" fill="#FF3646"/>
<path d="M9.94775 11.1045H11.0524V12.2092H9.94775V11.1045Z" fill="#FF3646"/>
<path d="M11.0522 10H12.1569V11.1047H11.0522V10Z" fill="#FF3646"/>
<path d="M8.84302 11.1045H9.94771V12.2092H8.84302V11.1045Z" fill="#FF3646"/>
<path d="M9.94775 12.2095H11.0524V13.3142H9.94775V12.2095Z" fill="#FF3646"/>
<path d="M11.0522 11.1045H12.1569V12.2092H11.0522V11.1045Z" fill="#FF3646"/>
<path d="M8.84302 12.2095H9.94771V13.3142H8.84302V12.2095Z" fill="#FF3646"/>
<path d="M9.94775 13.314H11.0524V14.4187H9.94775V13.314Z" fill="#FF3646"/>
<path d="M11.0522 12.2095H12.1569V13.3142H11.0522V12.2095Z" fill="#FF3646"/>
<path d="M8.84302 13.314H9.94771V14.4187H8.84302V13.314Z" fill="#FF3646"/>
<path d="M9.94775 14.4189H11.0524V15.5236H9.94775V14.4189Z" fill="#FF3646"/>
<path d="M11.0522 13.314H12.1569V14.4187H11.0522V13.314Z" fill="#FF3646"/>
<path d="M8.84302 14.4189H9.94771V15.5236H8.84302V14.4189Z" fill="#FF3646"/>
<path d="M9.94775 15.5234H11.0524V16.6281H9.94775V15.5234Z" fill="#FF3646"/>
<path d="M11.0522 14.4189H12.1569V15.5236H11.0522V14.4189Z" fill="#FF3646"/>
<path d="M8.84302 15.5234H9.94771V16.6281H8.84302V15.5234Z" fill="#404040"/>
<path d="M9.94775 16.6279H11.0524V17.7326H9.94775V16.6279Z" fill="#404040"/>
<path d="M11.0522 15.5234H12.1569V16.6281H11.0522V15.5234Z" fill="#404040"/>
<path d="M13.2617 2.26709H14.3664V3.37178H13.2617V2.26709Z" fill="#404040"/>
<path d="M14.3665 2.26709H15.4711V3.37178H14.3665V2.26709Z" fill="#404040"/>
<path d="M15.4712 2.26709H16.5759V3.37178H15.4712V2.26709Z" fill="#404040"/>
</svg>
