<svg width="16" height="17" viewBox="0 0 16 17" fill="none" xmlns="http://www.w3.org/2000/svg">
    <path d="M15.3337 9.8335V10.5002H14.667V11.8335H14.0003V13.1668H13.3337V13.8335H12.667V14.5002H11.3337V15.1668H10.0003V15.8335H6.00033V15.1668H4.66699V14.5002H3.33366V13.8335H2.00033V14.5002H1.33366V15.1668H0.666992V9.8335H6.00033V10.5002H5.33366V11.1668H4.66699V12.5002H5.33366V13.1668H6.66699V13.8335H9.33366V13.1668H10.667V12.5002H11.3337V11.8335H12.0003V10.5002H12.667V9.8335H15.3337Z" fill="#AD20EF"/>
    <path d="M15.3337 1.83317V7.1665H10.0003V6.49984H10.667V5.83317H11.3337V4.49984H10.667V3.83317H9.33366V3.1665H6.66699V3.83317H5.33366V4.49984H4.66699V5.1665H4.00033V6.49984H3.33366V7.1665H0.666992V6.49984H1.33366V5.1665H2.00033V3.83317H2.66699V3.1665H3.33366V2.49984H4.66699V1.83317H6.00033V1.1665H10.0003V1.83317H11.3337V2.49984H12.667V3.1665H14.0003V2.49984H14.667V1.83317H15.3337Z" fill="#AD20EF"/>
</svg>